<?xml version="1.0" encoding="utf-8"?><svg version="1.1" id="Layer_1" xmlns="http://www.w3.org/2000/svg" xmlns:xlink="http://www.w3.org/1999/xlink" x="0px" y="0px" viewBox="0 0 122.88 92.19" style="enable-background:new 0 0 122.88 92.19" xml:space="preserve"><g><path d="M78.37,9.74c-1.81,0-3.29-1.47-3.29-3.29c0-1.81,1.47-3.29,3.29-3.29c12.29,0,23.42,4.98,31.47,13.04 c8.06,8.06,13.04,19.18,13.04,31.47c0,12.29-4.98,23.42-13.04,31.47c-8.06,8.06-19.18,13.04-31.47,13.04 c-1.81,0-3.29-1.47-3.29-3.29s1.47-3.29,3.29-3.29c10.48,0,19.96-4.25,26.83-11.11c6.87-6.87,11.11-16.35,11.11-26.83 s-4.25-19.96-11.11-26.83C98.33,13.98,88.84,9.74,78.37,9.74L78.37,9.74z M10.47,21.76h24.27L55.4,0.97 c1.28-1.28,3.35-1.29,4.63-0.01C60.68,1.59,61,2.43,61,3.28h0.01v85.49c0,1.81-1.47,3.29-3.29,3.29c-0.92,0-1.75-0.38-2.35-0.99 L34.91,73.81H10.47c-2.88,0-5.5-1.18-7.39-3.07C1.18,68.85,0,66.23,0,63.35V32.23c0-2.88,1.18-5.5,3.07-7.39 C4.97,22.94,7.59,21.76,10.47,21.76L10.47,21.76z M36.09,28.33H10.47c-1.07,0-2.04,0.44-2.75,1.15s-1.15,1.68-1.15,2.75v31.12 c0,1.07,0.44,2.04,1.15,2.75c0.71,0.71,1.68,1.15,2.75,1.15h25.62v0.02c0.74,0,1.49,0.25,2.1,0.77l16.25,13.69V11.23L38.59,27.18 C37.98,27.89,37.09,28.33,36.09,28.33L36.09,28.33z M76.71,28.52c-1.5,0-2.72-1.22-2.72-2.72c0-1.5,1.22-2.72,2.72-2.72 c6.98,0,13.3,2.83,17.87,7.4c4.57,4.57,7.4,10.89,7.4,17.87c0,6.98-2.83,13.3-7.4,17.87c-4.57,4.57-10.89,7.4-17.87,7.4 c-1.5,0-2.72-1.22-2.72-2.72c0-1.5,1.22-2.72,2.72-2.72c5.48,0,10.44-2.22,14.03-5.81c3.59-3.59,5.81-8.55,5.81-14.03 c0-5.48-2.22-10.44-5.81-14.03C87.14,30.74,82.18,28.52,76.71,28.52L76.71,28.52z"/></g></svg>